<svg width="32" height="20" viewBox="0 0 32 20" fill="none" xmlns="http://www.w3.org/2000/svg">
<path d="M26.5533 11.3707C26.036 10.7174 26.184 10.4267 26.5533 9.84273C26.56 9.83607 30.8307 3.93473 31.2707 1.9334L31.2733 1.93207C31.492 1.20273 31.2733 0.666733 30.216 0.666733H26.7173C25.8267 0.666733 25.416 1.12673 25.196 1.6414C25.196 1.6414 23.4147 5.9054 20.8947 8.6694C20.0813 9.46807 19.7053 9.72407 19.2613 9.72407C19.0427 9.72407 18.7027 9.46807 18.7027 8.73873V1.93207C18.7027 1.0574 18.4533 0.666733 17.716 0.666733H12.2147C11.656 0.666733 11.324 1.07473 11.324 1.45473C11.324 2.28407 12.584 2.47473 12.7147 4.80807V9.87073C12.7147 10.9801 12.5133 11.1841 12.0667 11.1841C10.8773 11.1841 7.99067 6.90273 6.28 2.00273C5.93467 1.05207 5.59733 0.668066 4.7 0.668066H1.2C0.201333 0.668066 0 1.12807 0 1.64273C0 2.55207 1.18933 7.0734 5.53067 13.0467C8.424 17.1241 12.4987 19.3334 16.2053 19.3334C18.4333 19.3334 18.7053 18.8427 18.7053 17.9987C18.7053 14.1027 18.504 13.7347 19.62 13.7347C20.1373 13.7347 21.028 13.9907 23.108 15.9574C25.4853 18.2894 25.876 19.3334 27.2067 19.3334H30.7053C31.7027 19.3334 32.208 18.8427 31.9173 17.8747C31.252 15.8387 26.756 11.6507 26.5533 11.3707Z" fill="#2DA0A6"/>
</svg>
