<svg width="15" height="15" viewBox="0 0 15 15" fill="none" xmlns="http://www.w3.org/2000/svg">
<path d="M11.7417 10.3275C12.529 9.25236 12.9999 7.93169 12.9999 6.49999C12.9999 2.91602 10.0839 0 6.49996 0C2.91599 0 0 2.91602 0 6.49999C0 10.084 2.91602 13 6.49999 13C7.93169 13 9.25248 12.529 10.3277 11.7416L12.8789 14.2929C13.2694 14.6834 13.9025 14.6834 14.293 14.2929C14.6835 13.9024 14.6835 13.2693 14.293 12.8788L11.7417 10.3275ZM6.49999 11C4.01854 11 2.00001 8.98143 2.00001 6.49999C2.00001 4.01854 4.01854 2.00001 6.49999 2.00001C8.98143 2.00001 11 4.01854 11 6.49999C11 8.98143 8.9814 11 6.49999 11Z" fill="#2DA0A6"/>
</svg>
