<svg width="24" height="18" viewBox="0 0 24 18" fill="none" xmlns="http://www.w3.org/2000/svg">
<path d="M0 1C0 0.447715 0.447715 0 1 0H23C23.5523 0 24 0.447715 24 1C24 1.55228 23.5523 2 23 2H1C0.447716 2 0 1.55228 0 1Z" fill="#2DA0A6"/>
<path d="M0 9C0 8.44772 0.447715 8 1 8H23C23.5523 8 24 8.44772 24 9C24 9.55228 23.5523 10 23 10H1C0.447716 10 0 9.55228 0 9Z" fill="#2DA0A6"/>
<path d="M0 17C0 16.4477 0.447715 16 1 16H15C15.5523 16 16 16.4477 16 17C16 17.5523 15.5523 18 15 18H1C0.447715 18 0 17.5523 0 17Z" fill="#2DA0A6"/>
</svg>
