<svg width="40" height="40" viewBox="0 0 40 40" fill="none" xmlns="http://www.w3.org/2000/svg">
<circle cx="20" cy="20" r="20" fill="#2DA0A6"/>
<path d="M24.8375 24.3169C23.4624 24.3169 22.3438 25.4356 22.3438 26.8107C22.3438 28.1857 23.4625 29.3044 24.8375 29.3044C26.2126 29.3044 27.3313 28.1857 27.3313 26.8107C27.3313 25.4356 26.2126 24.3169 24.8375 24.3169ZM24.8375 27.8082C24.2874 27.8082 23.84 27.3608 23.84 26.8107C23.84 26.2605 24.2874 25.8132 24.8375 25.8132C25.3876 25.8132 25.835 26.2605 25.835 26.8107C25.835 27.3608 25.3876 27.8082 24.8375 27.8082Z" fill="white"/>
<path d="M28.841 14.6785C28.6994 14.4972 28.4821 14.3915 28.252 14.3915H13.618L12.9447 11.5743C12.8641 11.2377 12.5631 11 12.217 11H9.74813C9.33492 11 9 11.3349 9 11.7481C9 12.1613 9.33492 12.4962 9.74813 12.4962H11.6265L14.0579 22.6698C14.1384 23.0067 14.4394 23.2441 14.7856 23.2441H26.4315C26.7755 23.2441 27.0752 23.0097 27.1577 22.676L28.9782 15.3194C29.0333 15.096 28.9827 14.8598 28.841 14.6785ZM25.8462 21.7479H15.3761L13.9756 15.8878H27.2961L25.8462 21.7479Z" fill="white"/>
<path d="M15.7828 24.3169C14.4077 24.3169 13.2891 25.4356 13.2891 26.8107C13.2891 28.1857 14.4078 29.3044 15.7828 29.3044C17.1579 29.3044 18.2766 28.1857 18.2766 26.8107C18.2766 25.4356 17.1579 24.3169 15.7828 24.3169ZM15.7828 27.8082C15.2327 27.8082 14.7853 27.3608 14.7853 26.8107C14.7853 26.2605 15.2327 25.8132 15.7828 25.8132C16.3329 25.8132 16.7803 26.2605 16.7803 26.8107C16.7803 27.3608 16.3329 27.8082 15.7828 27.8082Z" fill="white"/>
</svg>
