<svg width="64" height="80" viewBox="0 0 64 80" fill="none" xmlns="http://www.w3.org/2000/svg">
<path d="M61.0894 56.9576C56.7665 69.5512 48.6952 74.2372 36.8755 71.0156C25.0558 67.794 14.8778 61.4972 6.34135 52.1251C-2.19508 42.7531 -2.113 33.5568 6.58759 24.5363C15.2882 15.5157 24.9737 10.1268 35.6443 8.36952C46.3148 6.61226 54.304 11.1225 59.6119 21.9004C64.9198 32.6782 65.4123 44.3639 61.0894 56.9576Z" fill="#EFF3F6"/>
<path d="M3.52 60.28L8.88 52.52C12.3467 56.3067 16.3733 58.2 20.96 58.2C23.84 58.2 26.32 57.32 28.4 55.56C30.5333 53.7467 31.6 51.4 31.6 48.52C31.6 45.5867 30.5333 43.2133 28.4 41.4C26.2667 39.5867 23.5467 38.68 20.24 38.68C17.0933 38.68 14.16 39.48 11.44 41.08L5.68 39L8.32 10.2H38.24V19.08H17.28L16.4 28.44L16 31.08H16.16C17.76 30.2267 19.7867 29.8 22.24 29.8C28.32 29.8 33.1733 31.5867 36.8 35.16C40.4267 38.7333 42.24 43.16 42.24 48.44C42.24 54.04 40.2933 58.7067 36.4 62.44C32.5067 66.12 27.6267 67.96 21.76 67.96C18.2933 67.96 14.96 67.2933 11.76 65.96C8.56 64.6267 5.81333 62.7333 3.52 60.28Z" fill="#2DA0A6"/>
</svg>
