<svg width="64" height="80" viewBox="0 0 64 80" fill="none" xmlns="http://www.w3.org/2000/svg">
<path d="M61.0894 56.9576C56.7665 69.5512 48.6952 74.2372 36.8755 71.0156C25.0558 67.794 14.8778 61.4972 6.34135 52.1251C-2.19508 42.7531 -2.113 33.5568 6.58759 24.5363C15.2882 15.5157 24.9737 10.1268 35.6443 8.36952C46.3148 6.61226 54.304 11.1225 59.6119 21.9004C64.9198 32.6782 65.4123 44.3639 61.0894 56.9576Z" fill="#EFF3F6"/>
<path d="M2.4 52.36V46.04L26.96 10.2H39.12V43.8H46.48V52.36H39.12V67H28.96V52.36H2.4ZM13.28 43.8H28.96V26.2L29.36 20.28H29.2C28.3467 22.3067 27.4133 24.04 26.4 25.48L13.28 43.64V43.8Z" fill="#2DA0A6"/>
</svg>
