<svg width="50" height="50" viewBox="0 0 50 50" fill="none" xmlns="http://www.w3.org/2000/svg">
<rect width="50" height="50" rx="6" fill="#EFF3F6"/>
<g clip-path="url(#clip0_2_23917)">
<path d="M33.2448 26.0709C32.8406 25.5605 32.9562 25.3334 33.2448 24.8771C33.25 24.8719 36.5865 20.2615 36.9302 18.698L36.9323 18.6969C37.1031 18.1271 36.9323 17.7084 36.1062 17.7084H33.3729C32.6771 17.7084 32.3562 18.0677 32.1844 18.4698C32.1844 18.4698 30.7927 21.8011 28.824 23.9605C28.1885 24.5844 27.8948 24.7844 27.5479 24.7844C27.3771 24.7844 27.1115 24.5844 27.1115 24.0146V18.6969C27.1115 18.0136 26.9167 17.7084 26.3406 17.7084H22.0427C21.6062 17.7084 21.3469 18.0271 21.3469 18.324C21.3469 18.9719 22.3313 19.1209 22.4333 20.9438V24.899C22.4333 25.7657 22.276 25.925 21.9271 25.925C20.9979 25.925 18.7427 22.5802 17.4062 18.7521C17.1365 18.0094 16.8729 17.7094 16.1719 17.7094H13.4375C12.6573 17.7094 12.5 18.0688 12.5 18.4709C12.5 19.1813 13.4292 22.7136 16.8208 27.3802C19.0812 30.5657 22.2646 32.2917 25.1604 32.2917C26.901 32.2917 27.1135 31.9084 27.1135 31.249C27.1135 28.2053 26.9562 27.9177 27.8281 27.9177C28.2323 27.9177 28.9281 28.1178 30.5531 29.6542C32.4104 31.4761 32.7156 32.2917 33.7552 32.2917H36.4885C37.2677 32.2917 37.6625 31.9084 37.4354 31.1521C36.9156 29.5615 33.4031 26.2896 33.2448 26.0709Z" fill="#2DA0A6"/>
</g>
<defs>
<clipPath id="clip0_2_23917">
<rect width="25" height="25" fill="white" transform="translate(12.5 12.5)"/>
</clipPath>
</defs>
</svg>
