<svg width="90" height="93" viewBox="0 0 90 93" fill="none" xmlns="http://www.w3.org/2000/svg">
<g filter="url(#filter0_d_2_23895)">
<ellipse cx="45" cy="42.0227" rx="20" ry="21.0227" fill="white"/>
</g>
<path d="M52.8421 41.4536H36.9652C36.4321 41.4536 36 41.9081 36 42.4681C36 43.0282 36.4321 43.4827 36.9652 43.4827H52.8421C53.3752 43.4827 53.8073 43.0285 53.8073 42.4681C53.8073 41.9078 53.3752 41.4536 52.8421 41.4536Z" fill="#121212"/>
<path d="M53.7152 41.7508L46.2569 33.9108C45.8798 33.5148 45.2692 33.5148 44.8922 33.9108C44.5151 34.3071 44.5151 34.9496 44.8922 35.3456L51.6681 42.4684L44.8922 49.5911C44.5151 49.9871 44.5151 50.6296 44.8922 51.0256C45.0807 51.2238 45.3275 51.3229 45.5745 51.3229C45.8216 51.3229 46.0684 51.2238 46.2569 51.0256L53.7152 43.1857C54.0922 42.7893 54.0922 42.1467 53.7152 41.7508Z" fill="#121212"/>
<defs>
<filter id="filter0_d_2_23895" x="0" y="0" width="90" height="92.0455" filterUnits="userSpaceOnUse" color-interpolation-filters="sRGB">
<feFlood flood-opacity="0" result="BackgroundImageFix"/>
<feColorMatrix in="SourceAlpha" type="matrix" values="0 0 0 0 0 0 0 0 0 0 0 0 0 0 0 0 0 0 127 0" result="hardAlpha"/>
<feOffset dy="4"/>
<feGaussianBlur stdDeviation="12.5"/>
<feComposite in2="hardAlpha" operator="out"/>
<feColorMatrix type="matrix" values="0 0 0 0 0.462745 0 0 0 0 0.317647 0 0 0 0 0.294118 0 0 0 0.18 0"/>
<feBlend mode="normal" in2="BackgroundImageFix" result="effect1_dropShadow_2_23895"/>
<feBlend mode="normal" in="SourceGraphic" in2="effect1_dropShadow_2_23895" result="shape"/>
</filter>
</defs>
</svg>
