<svg width="299" height="80" viewBox="0 0 299 80" fill="none" xmlns="http://www.w3.org/2000/svg">
<path d="M61.0894 56.9576C56.7665 69.5512 48.6952 74.2372 36.8755 71.0156C25.0558 67.794 14.8778 61.4972 6.34135 52.1251C-2.19508 42.7531 -2.113 33.5568 6.58759 24.5363C15.2882 15.5157 24.9737 10.1268 35.6443 8.36952C46.3148 6.61226 54.304 11.1225 59.6119 21.9004C64.9198 32.6782 65.4123 44.3639 61.0894 56.9576Z" fill="#EFF3F6"/>
<path d="M3.04 60.36L8.32 52.44C9.92 54.0933 11.8667 55.48 14.16 56.6C16.5067 57.6667 18.88 58.2 21.28 58.2C24.2133 58.2 26.64 57.4 28.56 55.8C30.48 54.2 31.44 52.1733 31.44 49.72C31.44 46.84 30.2933 44.6533 28 43.16C25.76 41.6667 22.8533 40.92 19.28 40.92H15.36L13.12 35.64L23.52 23.32C24.16 22.52 24.8267 21.7733 25.52 21.08C26.2133 20.3333 26.72 19.8 27.04 19.48L27.6 19V18.84C26.4267 19 24.7467 19.08 22.56 19.08H5.6V10.2H40.24V16.68L26.4 32.76C30.6667 33.3467 34.2933 35.1067 37.28 38.04C40.32 40.92 41.84 44.68 41.84 49.32C41.84 54.44 40.0267 58.84 36.4 62.52C32.7733 66.1467 27.92 67.96 21.84 67.96C18.3733 67.96 14.96 67.32 11.6 66.04C8.29333 64.7067 5.44 62.8133 3.04 60.36Z" fill="#2DA0A6"/>
<path d="M298.354 40.3536C298.549 40.1583 298.549 39.8417 298.354 39.6464L295.172 36.4645C294.976 36.2692 294.66 36.2692 294.464 36.4645C294.269 36.6597 294.269 36.9763 294.464 37.1716L297.293 40L294.464 42.8284C294.269 43.0237 294.269 43.3403 294.464 43.5355C294.66 43.7308 294.976 43.7308 295.172 43.5355L298.354 40.3536ZM100.99 40.5C101.266 40.5 101.49 40.2761 101.49 40C101.49 39.7239 101.266 39.5 100.99 39.5V40.5ZM106.93 39.5C106.654 39.5 106.43 39.7239 106.43 40C106.43 40.2761 106.654 40.5 106.93 40.5V39.5ZM108.91 40.5C109.186 40.5 109.41 40.2761 109.41 40C109.41 39.7239 109.186 39.5 108.91 39.5V40.5ZM114.85 39.5C114.574 39.5 114.35 39.7239 114.35 40C114.35 40.2761 114.574 40.5 114.85 40.5V39.5ZM116.83 40.5C117.106 40.5 117.33 40.2761 117.33 40C117.33 39.7239 117.106 39.5 116.83 39.5V40.5ZM122.77 39.5C122.494 39.5 122.27 39.7239 122.27 40C122.27 40.2761 122.494 40.5 122.77 40.5V39.5ZM124.75 40.5C125.026 40.5 125.25 40.2761 125.25 40C125.25 39.7239 125.026 39.5 124.75 39.5V40.5ZM130.69 39.5C130.414 39.5 130.19 39.7239 130.19 40C130.19 40.2761 130.414 40.5 130.69 40.5V39.5ZM132.67 40.5C132.946 40.5 133.17 40.2761 133.17 40C133.17 39.7239 132.946 39.5 132.67 39.5V40.5ZM138.61 39.5C138.334 39.5 138.11 39.7239 138.11 40C138.11 40.2761 138.334 40.5 138.61 40.5V39.5ZM140.59 40.5C140.866 40.5 141.09 40.2761 141.09 40C141.09 39.7239 140.866 39.5 140.59 39.5V40.5ZM146.53 39.5C146.254 39.5 146.03 39.7239 146.03 40C146.03 40.2761 146.254 40.5 146.53 40.5V39.5ZM148.51 40.5C148.786 40.5 149.01 40.2761 149.01 40C149.01 39.7239 148.786 39.5 148.51 39.5V40.5ZM154.45 39.5C154.174 39.5 153.95 39.7239 153.95 40C153.95 40.2761 154.174 40.5 154.45 40.5V39.5ZM156.43 40.5C156.706 40.5 156.93 40.2761 156.93 40C156.93 39.7239 156.706 39.5 156.43 39.5V40.5ZM162.37 39.5C162.094 39.5 161.87 39.7239 161.87 40C161.87 40.2761 162.094 40.5 162.37 40.5V39.5ZM164.35 40.5C164.626 40.5 164.85 40.2761 164.85 40C164.85 39.7239 164.626 39.5 164.35 39.5V40.5ZM170.29 39.5C170.014 39.5 169.79 39.7239 169.79 40C169.79 40.2761 170.014 40.5 170.29 40.5V39.5ZM172.27 40.5C172.546 40.5 172.77 40.2761 172.77 40C172.77 39.7239 172.546 39.5 172.27 39.5V40.5ZM178.21 39.5C177.934 39.5 177.71 39.7239 177.71 40C177.71 40.2761 177.934 40.5 178.21 40.5V39.5ZM180.19 40.5C180.466 40.5 180.69 40.2761 180.69 40C180.69 39.7239 180.466 39.5 180.19 39.5V40.5ZM186.13 39.5C185.854 39.5 185.63 39.7239 185.63 40C185.63 40.2761 185.854 40.5 186.13 40.5V39.5ZM188.11 40.5C188.386 40.5 188.61 40.2761 188.61 40C188.61 39.7239 188.386 39.5 188.11 39.5V40.5ZM194.05 39.5C193.774 39.5 193.55 39.7239 193.55 40C193.55 40.2761 193.774 40.5 194.05 40.5V39.5ZM196.03 40.5C196.306 40.5 196.53 40.2761 196.53 40C196.53 39.7239 196.306 39.5 196.03 39.5V40.5ZM201.97 39.5C201.694 39.5 201.47 39.7239 201.47 40C201.47 40.2761 201.694 40.5 201.97 40.5V39.5ZM203.95 40.5C204.226 40.5 204.45 40.2761 204.45 40C204.45 39.7239 204.226 39.5 203.95 39.5V40.5ZM209.89 39.5C209.614 39.5 209.39 39.7239 209.39 40C209.39 40.2761 209.614 40.5 209.89 40.5V39.5ZM211.87 40.5C212.146 40.5 212.37 40.2761 212.37 40C212.37 39.7239 212.146 39.5 211.87 39.5V40.5ZM217.81 39.5C217.534 39.5 217.31 39.7239 217.31 40C217.31 40.2761 217.534 40.5 217.81 40.5V39.5ZM219.79 40.5C220.066 40.5 220.29 40.2761 220.29 40C220.29 39.7239 220.066 39.5 219.79 39.5V40.5ZM225.73 39.5C225.454 39.5 225.23 39.7239 225.23 40C225.23 40.2761 225.454 40.5 225.73 40.5V39.5ZM227.71 40.5C227.986 40.5 228.21 40.2761 228.21 40C228.21 39.7239 227.986 39.5 227.71 39.5V40.5ZM233.65 39.5C233.374 39.5 233.15 39.7239 233.15 40C233.15 40.2761 233.374 40.5 233.65 40.5V39.5ZM235.63 40.5C235.906 40.5 236.13 40.2761 236.13 40C236.13 39.7239 235.906 39.5 235.63 39.5V40.5ZM241.57 39.5C241.294 39.5 241.07 39.7239 241.07 40C241.07 40.2761 241.294 40.5 241.57 40.5V39.5ZM243.55 40.5C243.826 40.5 244.05 40.2761 244.05 40C244.05 39.7239 243.826 39.5 243.55 39.5V40.5ZM249.49 39.5C249.214 39.5 248.99 39.7239 248.99 40C248.99 40.2761 249.214 40.5 249.49 40.5V39.5ZM251.47 40.5C251.746 40.5 251.97 40.2761 251.97 40C251.97 39.7239 251.746 39.5 251.47 39.5V40.5ZM257.41 39.5C257.134 39.5 256.91 39.7239 256.91 40C256.91 40.2761 257.134 40.5 257.41 40.5V39.5ZM259.39 40.5C259.666 40.5 259.89 40.2761 259.89 40C259.89 39.7239 259.666 39.5 259.39 39.5V40.5ZM265.33 39.5C265.054 39.5 264.83 39.7239 264.83 40C264.83 40.2761 265.054 40.5 265.33 40.5V39.5ZM267.31 40.5C267.586 40.5 267.81 40.2761 267.81 40C267.81 39.7239 267.586 39.5 267.31 39.5V40.5ZM273.25 39.5C272.974 39.5 272.75 39.7239 272.75 40C272.75 40.2761 272.974 40.5 273.25 40.5V39.5ZM275.23 40.5C275.506 40.5 275.73 40.2761 275.73 40C275.73 39.7239 275.506 39.5 275.23 39.5V40.5ZM281.17 39.5C280.894 39.5 280.67 39.7239 280.67 40C280.67 40.2761 280.894 40.5 281.17 40.5V39.5ZM283.15 40.5C283.426 40.5 283.65 40.2761 283.65 40C283.65 39.7239 283.426 39.5 283.15 39.5V40.5ZM289.09 39.5C288.814 39.5 288.59 39.7239 288.59 40C288.59 40.2761 288.814 40.5 289.09 40.5V39.5ZM291.07 40.5C291.346 40.5 291.57 40.2761 291.57 40C291.57 39.7239 291.346 39.5 291.07 39.5V40.5ZM297.01 39.5C296.734 39.5 296.51 39.7239 296.51 40C296.51 40.2761 296.734 40.5 297.01 40.5V39.5ZM100 40.5H100.99V39.5H100V40.5ZM106.93 40.5H108.91V39.5H106.93V40.5ZM114.85 40.5H116.83V39.5H114.85V40.5ZM122.77 40.5H124.75V39.5H122.77V40.5ZM130.69 40.5H132.67V39.5H130.69V40.5ZM138.61 40.5H140.59V39.5H138.61V40.5ZM146.53 40.5H148.51V39.5H146.53V40.5ZM154.45 40.5H156.43V39.5H154.45V40.5ZM162.37 40.5H164.35V39.5H162.37V40.5ZM170.29 40.5H172.27V39.5H170.29V40.5ZM178.21 40.5H180.19V39.5H178.21V40.5ZM186.13 40.5H188.11V39.5H186.13V40.5ZM194.05 40.5H196.03V39.5H194.05V40.5ZM201.97 40.5H203.95V39.5H201.97V40.5ZM209.89 40.5H211.87V39.5H209.89V40.5ZM217.81 40.5H219.79V39.5H217.81V40.5ZM225.73 40.5H227.71V39.5H225.73V40.5ZM233.65 40.5H235.63V39.5H233.65V40.5ZM241.57 40.5H243.55V39.5H241.57V40.5ZM249.49 40.5H251.47V39.5H249.49V40.5ZM257.41 40.5H259.39V39.5H257.41V40.5ZM265.33 40.5H267.31V39.5H265.33V40.5ZM273.25 40.5H275.23V39.5H273.25V40.5ZM281.17 40.5H283.15V39.5H281.17V40.5ZM289.09 40.5H291.07V39.5H289.09V40.5ZM297.01 40.5H298V39.5H297.01V40.5ZM298.707 40.7071C299.098 40.3166 299.098 39.6834 298.707 39.2929L292.343 32.9289C291.953 32.5384 291.319 32.5384 290.929 32.9289C290.538 33.3195 290.538 33.9526 290.929 34.3431L296.586 40L290.929 45.6569C290.538 46.0474 290.538 46.6805 290.929 47.0711C291.319 47.4616 291.953 47.4616 292.343 47.0711L298.707 40.7071ZM100.99 41C101.542 41 101.99 40.5523 101.99 40C101.99 39.4477 101.542 39 100.99 39V41ZM106.93 39C106.378 39 105.93 39.4477 105.93 40C105.93 40.5523 106.378 41 106.93 41V39ZM108.91 41C109.462 41 109.91 40.5523 109.91 40C109.91 39.4477 109.462 39 108.91 39V41ZM114.85 39C114.298 39 113.85 39.4477 113.85 40C113.85 40.5523 114.298 41 114.85 41V39ZM116.83 41C117.382 41 117.83 40.5523 117.83 40C117.83 39.4477 117.382 39 116.83 39V41ZM122.77 39C122.218 39 121.77 39.4477 121.77 40C121.77 40.5523 122.218 41 122.77 41V39ZM124.75 41C125.302 41 125.75 40.5523 125.75 40C125.75 39.4477 125.302 39 124.75 39V41ZM130.69 39C130.138 39 129.69 39.4477 129.69 40C129.69 40.5523 130.138 41 130.69 41V39ZM132.67 41C133.222 41 133.67 40.5523 133.67 40C133.67 39.4477 133.222 39 132.67 39V41ZM138.61 39C138.058 39 137.61 39.4477 137.61 40C137.61 40.5523 138.058 41 138.61 41V39ZM140.59 41C141.142 41 141.59 40.5523 141.59 40C141.59 39.4477 141.142 39 140.59 39V41ZM146.53 39C145.978 39 145.53 39.4477 145.53 40C145.53 40.5523 145.978 41 146.53 41V39ZM148.51 41C149.062 41 149.51 40.5523 149.51 40C149.51 39.4477 149.062 39 148.51 39V41ZM154.45 39C153.898 39 153.45 39.4477 153.45 40C153.45 40.5523 153.898 41 154.45 41V39ZM156.43 41C156.982 41 157.43 40.5523 157.43 40C157.43 39.4477 156.982 39 156.43 39V41ZM162.37 39C161.818 39 161.37 39.4477 161.37 40C161.37 40.5523 161.818 41 162.37 41V39ZM164.35 41C164.902 41 165.35 40.5523 165.35 40C165.35 39.4477 164.902 39 164.35 39V41ZM170.29 39C169.738 39 169.29 39.4477 169.29 40C169.29 40.5523 169.738 41 170.29 41V39ZM172.27 41C172.822 41 173.27 40.5523 173.27 40C173.27 39.4477 172.822 39 172.27 39V41ZM178.21 39C177.658 39 177.21 39.4477 177.21 40C177.21 40.5523 177.658 41 178.21 41V39ZM180.19 41C180.742 41 181.19 40.5523 181.19 40C181.19 39.4477 180.742 39 180.19 39V41ZM186.13 39C185.578 39 185.13 39.4477 185.13 40C185.13 40.5523 185.578 41 186.13 41V39ZM188.11 41C188.662 41 189.11 40.5523 189.11 40C189.11 39.4477 188.662 39 188.11 39V41ZM194.05 39C193.498 39 193.05 39.4477 193.05 40C193.05 40.5523 193.498 41 194.05 41V39ZM196.03 41C196.582 41 197.03 40.5523 197.03 40C197.03 39.4477 196.582 39 196.03 39V41ZM201.97 39C201.418 39 200.97 39.4477 200.97 40C200.97 40.5523 201.418 41 201.97 41V39ZM203.95 41C204.502 41 204.95 40.5523 204.95 40C204.95 39.4477 204.502 39 203.95 39V41ZM209.89 39C209.338 39 208.89 39.4477 208.89 40C208.89 40.5523 209.338 41 209.89 41V39ZM211.87 41C212.422 41 212.87 40.5523 212.87 40C212.87 39.4477 212.422 39 211.87 39V41ZM217.81 39C217.258 39 216.81 39.4477 216.81 40C216.81 40.5523 217.258 41 217.81 41V39ZM219.79 41C220.342 41 220.79 40.5523 220.79 40C220.79 39.4477 220.342 39 219.79 39V41ZM225.73 39C225.178 39 224.73 39.4477 224.73 40C224.73 40.5523 225.178 41 225.73 41V39ZM227.71 41C228.262 41 228.71 40.5523 228.71 40C228.71 39.4477 228.262 39 227.71 39V41ZM233.65 39C233.098 39 232.65 39.4477 232.65 40C232.65 40.5523 233.098 41 233.65 41V39ZM235.63 41C236.182 41 236.63 40.5523 236.63 40C236.63 39.4477 236.182 39 235.63 39V41ZM241.57 39C241.018 39 240.57 39.4477 240.57 40C240.57 40.5523 241.018 41 241.57 41V39ZM243.55 41C244.102 41 244.55 40.5523 244.55 40C244.55 39.4477 244.102 39 243.55 39V41ZM249.49 39C248.938 39 248.49 39.4477 248.49 40C248.49 40.5523 248.938 41 249.49 41V39ZM251.47 41C252.022 41 252.47 40.5523 252.47 40C252.47 39.4477 252.022 39 251.47 39V41ZM257.41 39C256.858 39 256.41 39.4477 256.41 40C256.41 40.5523 256.858 41 257.41 41V39ZM259.39 41C259.942 41 260.39 40.5523 260.39 40C260.39 39.4477 259.942 39 259.39 39V41ZM265.33 39C264.778 39 264.33 39.4477 264.33 40C264.33 40.5523 264.778 41 265.33 41V39ZM267.31 41C267.862 41 268.31 40.5523 268.31 40C268.31 39.4477 267.862 39 267.31 39V41ZM273.25 39C272.698 39 272.25 39.4477 272.25 40C272.25 40.5523 272.698 41 273.25 41V39ZM275.23 41C275.782 41 276.23 40.5523 276.23 40C276.23 39.4477 275.782 39 275.23 39V41ZM281.17 39C280.618 39 280.17 39.4477 280.17 40C280.17 40.5523 280.618 41 281.17 41V39ZM283.15 41C283.702 41 284.15 40.5523 284.15 40C284.15 39.4477 283.702 39 283.15 39V41ZM289.09 39C288.538 39 288.09 39.4477 288.09 40C288.09 40.5523 288.538 41 289.09 41V39ZM291.07 41C291.622 41 292.07 40.5523 292.07 40C292.07 39.4477 291.622 39 291.07 39V41ZM297.01 39C296.458 39 296.01 39.4477 296.01 40C296.01 40.5523 296.458 41 297.01 41V39ZM100 41H100.99V39H100V41ZM106.93 41H108.91V39H106.93V41ZM114.85 41H116.83V39H114.85V41ZM122.77 41H124.75V39H122.77V41ZM130.69 41H132.67V39H130.69V41ZM138.61 41H140.59V39H138.61V41ZM146.53 41H148.51V39H146.53V41ZM154.45 41H156.43V39H154.45V41ZM162.37 41H164.35V39H162.37V41ZM170.29 41H172.27V39H170.29V41ZM178.21 41H180.19V39H178.21V41ZM186.13 41H188.11V39H186.13V41ZM194.05 41H196.03V39H194.05V41ZM201.97 41H203.95V39H201.97V41ZM209.89 41H211.87V39H209.89V41ZM217.81 41H219.79V39H217.81V41ZM225.73 41H227.71V39H225.73V41ZM233.65 41H235.63V39H233.65V41ZM241.57 41H243.55V39H241.57V41ZM249.49 41H251.47V39H249.49V41ZM257.41 41H259.39V39H257.41V41ZM265.33 41H267.31V39H265.33V41ZM273.25 41H275.23V39H273.25V41ZM281.17 41H283.15V39H281.17V41ZM289.09 41H291.07V39H289.09V41ZM297.01 41H298V39H297.01V41Z" fill="#2DA0A6"/>
</svg>
