<svg width="301" height="80" viewBox="0 0 301 80" fill="none" xmlns="http://www.w3.org/2000/svg">
<path d="M61.0894 56.9576C56.7665 69.5512 48.6952 74.2372 36.8755 71.0156C25.0558 67.794 14.8778 61.4972 6.34135 52.1251C-2.19508 42.7531 -2.113 33.5568 6.58759 24.5363C15.2882 15.5157 24.9737 10.1268 35.6443 8.36952C46.3148 6.61226 54.304 11.1225 59.6119 21.9004C64.9198 32.6782 65.4123 44.3639 61.0894 56.9576Z" fill="#EFF3F6"/>
<path d="M14.64 67C14.32 65.1867 14.16 63.5067 14.16 61.96C14.16 59.1867 14.64 56.6 15.6 54.2C16.6133 51.8 17.8933 49.7467 19.44 48.04C20.9867 46.28 22.6933 44.6533 24.56 43.16C26.48 41.6667 28.3733 40.28 30.24 39C32.16 37.72 33.8933 36.4667 35.44 35.24C36.9867 34.0133 38.24 32.7067 39.2 31.32C40.2133 29.88 40.72 28.4133 40.72 26.92C40.72 24.52 39.8933 22.6 38.24 21.16C36.5867 19.72 34.5333 19 32.08 19C30 19 28.0533 19.64 26.24 20.92C24.4267 22.2 22.96 23.8 21.84 25.72L14.16 20.6C15.9733 17.2933 18.48 14.5733 21.68 12.44C24.88 10.3067 28.64 9.24 32.96 9.24C38.1333 9.24 42.5067 10.76 46.08 13.8C49.6533 16.7867 51.44 20.8667 51.44 26.04C51.44 28.4933 50.96 30.8133 50 33C49.0933 35.1333 47.8933 36.9733 46.4 38.52C44.9067 40.0667 43.2267 41.5333 41.36 42.92C39.5467 44.3067 37.7333 45.5867 35.92 46.76C34.1067 47.9333 32.4267 49.1067 30.88 50.28C29.3333 51.4 28.0533 52.6267 27.04 53.96C26.08 55.2933 25.5733 56.68 25.52 58.12H52.32V67H14.64Z" fill="#2DA0A6"/>
<path d="M300.354 40.3536C300.549 40.1583 300.549 39.8417 300.354 39.6464L297.172 36.4645C296.976 36.2692 296.66 36.2692 296.464 36.4645C296.269 36.6597 296.269 36.9763 296.464 37.1716L299.293 40L296.464 42.8284C296.269 43.0237 296.269 43.3403 296.464 43.5355C296.66 43.7308 296.976 43.7308 297.172 43.5355L300.354 40.3536ZM102.99 40.5C103.266 40.5 103.49 40.2761 103.49 40C103.49 39.7239 103.266 39.5 102.99 39.5V40.5ZM108.93 39.5C108.654 39.5 108.43 39.7239 108.43 40C108.43 40.2761 108.654 40.5 108.93 40.5V39.5ZM110.91 40.5C111.186 40.5 111.41 40.2761 111.41 40C111.41 39.7239 111.186 39.5 110.91 39.5V40.5ZM116.85 39.5C116.574 39.5 116.35 39.7239 116.35 40C116.35 40.2761 116.574 40.5 116.85 40.5V39.5ZM118.83 40.5C119.106 40.5 119.33 40.2761 119.33 40C119.33 39.7239 119.106 39.5 118.83 39.5V40.5ZM124.77 39.5C124.494 39.5 124.27 39.7239 124.27 40C124.27 40.2761 124.494 40.5 124.77 40.5V39.5ZM126.75 40.5C127.026 40.5 127.25 40.2761 127.25 40C127.25 39.7239 127.026 39.5 126.75 39.5V40.5ZM132.69 39.5C132.414 39.5 132.19 39.7239 132.19 40C132.19 40.2761 132.414 40.5 132.69 40.5V39.5ZM134.67 40.5C134.946 40.5 135.17 40.2761 135.17 40C135.17 39.7239 134.946 39.5 134.67 39.5V40.5ZM140.61 39.5C140.334 39.5 140.11 39.7239 140.11 40C140.11 40.2761 140.334 40.5 140.61 40.5V39.5ZM142.59 40.5C142.866 40.5 143.09 40.2761 143.09 40C143.09 39.7239 142.866 39.5 142.59 39.5V40.5ZM148.53 39.5C148.254 39.5 148.03 39.7239 148.03 40C148.03 40.2761 148.254 40.5 148.53 40.5V39.5ZM150.51 40.5C150.786 40.5 151.01 40.2761 151.01 40C151.01 39.7239 150.786 39.5 150.51 39.5V40.5ZM156.45 39.5C156.174 39.5 155.95 39.7239 155.95 40C155.95 40.2761 156.174 40.5 156.45 40.5V39.5ZM158.43 40.5C158.706 40.5 158.93 40.2761 158.93 40C158.93 39.7239 158.706 39.5 158.43 39.5V40.5ZM164.37 39.5C164.094 39.5 163.87 39.7239 163.87 40C163.87 40.2761 164.094 40.5 164.37 40.5V39.5ZM166.35 40.5C166.626 40.5 166.85 40.2761 166.85 40C166.85 39.7239 166.626 39.5 166.35 39.5V40.5ZM172.29 39.5C172.014 39.5 171.79 39.7239 171.79 40C171.79 40.2761 172.014 40.5 172.29 40.5V39.5ZM174.27 40.5C174.546 40.5 174.77 40.2761 174.77 40C174.77 39.7239 174.546 39.5 174.27 39.5V40.5ZM180.21 39.5C179.934 39.5 179.71 39.7239 179.71 40C179.71 40.2761 179.934 40.5 180.21 40.5V39.5ZM182.19 40.5C182.466 40.5 182.69 40.2761 182.69 40C182.69 39.7239 182.466 39.5 182.19 39.5V40.5ZM188.13 39.5C187.854 39.5 187.63 39.7239 187.63 40C187.63 40.2761 187.854 40.5 188.13 40.5V39.5ZM190.11 40.5C190.386 40.5 190.61 40.2761 190.61 40C190.61 39.7239 190.386 39.5 190.11 39.5V40.5ZM196.05 39.5C195.774 39.5 195.55 39.7239 195.55 40C195.55 40.2761 195.774 40.5 196.05 40.5V39.5ZM198.03 40.5C198.306 40.5 198.53 40.2761 198.53 40C198.53 39.7239 198.306 39.5 198.03 39.5V40.5ZM203.97 39.5C203.694 39.5 203.47 39.7239 203.47 40C203.47 40.2761 203.694 40.5 203.97 40.5V39.5ZM205.95 40.5C206.226 40.5 206.45 40.2761 206.45 40C206.45 39.7239 206.226 39.5 205.95 39.5V40.5ZM211.89 39.5C211.614 39.5 211.39 39.7239 211.39 40C211.39 40.2761 211.614 40.5 211.89 40.5V39.5ZM213.87 40.5C214.146 40.5 214.37 40.2761 214.37 40C214.37 39.7239 214.146 39.5 213.87 39.5V40.5ZM219.81 39.5C219.534 39.5 219.31 39.7239 219.31 40C219.31 40.2761 219.534 40.5 219.81 40.5V39.5ZM221.79 40.5C222.066 40.5 222.29 40.2761 222.29 40C222.29 39.7239 222.066 39.5 221.79 39.5V40.5ZM227.73 39.5C227.454 39.5 227.23 39.7239 227.23 40C227.23 40.2761 227.454 40.5 227.73 40.5V39.5ZM229.71 40.5C229.986 40.5 230.21 40.2761 230.21 40C230.21 39.7239 229.986 39.5 229.71 39.5V40.5ZM235.65 39.5C235.374 39.5 235.15 39.7239 235.15 40C235.15 40.2761 235.374 40.5 235.65 40.5V39.5ZM237.63 40.5C237.906 40.5 238.13 40.2761 238.13 40C238.13 39.7239 237.906 39.5 237.63 39.5V40.5ZM243.57 39.5C243.294 39.5 243.07 39.7239 243.07 40C243.07 40.2761 243.294 40.5 243.57 40.5V39.5ZM245.55 40.5C245.826 40.5 246.05 40.2761 246.05 40C246.05 39.7239 245.826 39.5 245.55 39.5V40.5ZM251.49 39.5C251.214 39.5 250.99 39.7239 250.99 40C250.99 40.2761 251.214 40.5 251.49 40.5V39.5ZM253.47 40.5C253.746 40.5 253.97 40.2761 253.97 40C253.97 39.7239 253.746 39.5 253.47 39.5V40.5ZM259.41 39.5C259.134 39.5 258.91 39.7239 258.91 40C258.91 40.2761 259.134 40.5 259.41 40.5V39.5ZM261.39 40.5C261.666 40.5 261.89 40.2761 261.89 40C261.89 39.7239 261.666 39.5 261.39 39.5V40.5ZM267.33 39.5C267.054 39.5 266.83 39.7239 266.83 40C266.83 40.2761 267.054 40.5 267.33 40.5V39.5ZM269.31 40.5C269.586 40.5 269.81 40.2761 269.81 40C269.81 39.7239 269.586 39.5 269.31 39.5V40.5ZM275.25 39.5C274.974 39.5 274.75 39.7239 274.75 40C274.75 40.2761 274.974 40.5 275.25 40.5V39.5ZM277.23 40.5C277.506 40.5 277.73 40.2761 277.73 40C277.73 39.7239 277.506 39.5 277.23 39.5V40.5ZM283.17 39.5C282.894 39.5 282.67 39.7239 282.67 40C282.67 40.2761 282.894 40.5 283.17 40.5V39.5ZM285.15 40.5C285.426 40.5 285.65 40.2761 285.65 40C285.65 39.7239 285.426 39.5 285.15 39.5V40.5ZM291.09 39.5C290.814 39.5 290.59 39.7239 290.59 40C290.59 40.2761 290.814 40.5 291.09 40.5V39.5ZM293.07 40.5C293.346 40.5 293.57 40.2761 293.57 40C293.57 39.7239 293.346 39.5 293.07 39.5V40.5ZM299.01 39.5C298.734 39.5 298.51 39.7239 298.51 40C298.51 40.2761 298.734 40.5 299.01 40.5V39.5ZM102 40.5H102.99V39.5H102V40.5ZM108.93 40.5H110.91V39.5H108.93V40.5ZM116.85 40.5H118.83V39.5H116.85V40.5ZM124.77 40.5H126.75V39.5H124.77V40.5ZM132.69 40.5H134.67V39.5H132.69V40.5ZM140.61 40.5H142.59V39.5H140.61V40.5ZM148.53 40.5H150.51V39.5H148.53V40.5ZM156.45 40.5H158.43V39.5H156.45V40.5ZM164.37 40.5H166.35V39.5H164.37V40.5ZM172.29 40.5H174.27V39.5H172.29V40.5ZM180.21 40.5H182.19V39.5H180.21V40.5ZM188.13 40.5H190.11V39.5H188.13V40.5ZM196.05 40.5H198.03V39.5H196.05V40.5ZM203.97 40.5H205.95V39.5H203.97V40.5ZM211.89 40.5H213.87V39.5H211.89V40.5ZM219.81 40.5H221.79V39.5H219.81V40.5ZM227.73 40.5H229.71V39.5H227.73V40.5ZM235.65 40.5H237.63V39.5H235.65V40.5ZM243.57 40.5H245.55V39.5H243.57V40.5ZM251.49 40.5H253.47V39.5H251.49V40.5ZM259.41 40.5H261.39V39.5H259.41V40.5ZM267.33 40.5H269.31V39.5H267.33V40.5ZM275.25 40.5H277.23V39.5H275.25V40.5ZM283.17 40.5H285.15V39.5H283.17V40.5ZM291.09 40.5H293.07V39.5H291.09V40.5ZM299.01 40.5H300V39.5H299.01V40.5ZM300.707 40.7071C301.098 40.3166 301.098 39.6834 300.707 39.2929L294.343 32.9289C293.953 32.5384 293.319 32.5384 292.929 32.9289C292.538 33.3195 292.538 33.9526 292.929 34.3431L298.586 40L292.929 45.6569C292.538 46.0474 292.538 46.6805 292.929 47.0711C293.319 47.4616 293.953 47.4616 294.343 47.0711L300.707 40.7071ZM102.99 41C103.542 41 103.99 40.5523 103.99 40C103.99 39.4477 103.542 39 102.99 39V41ZM108.93 39C108.378 39 107.93 39.4477 107.93 40C107.93 40.5523 108.378 41 108.93 41V39ZM110.91 41C111.462 41 111.91 40.5523 111.91 40C111.91 39.4477 111.462 39 110.91 39V41ZM116.85 39C116.298 39 115.85 39.4477 115.85 40C115.85 40.5523 116.298 41 116.85 41V39ZM118.83 41C119.382 41 119.83 40.5523 119.83 40C119.83 39.4477 119.382 39 118.83 39V41ZM124.77 39C124.218 39 123.77 39.4477 123.77 40C123.77 40.5523 124.218 41 124.77 41V39ZM126.75 41C127.302 41 127.75 40.5523 127.75 40C127.75 39.4477 127.302 39 126.75 39V41ZM132.69 39C132.138 39 131.69 39.4477 131.69 40C131.69 40.5523 132.138 41 132.69 41V39ZM134.67 41C135.222 41 135.67 40.5523 135.67 40C135.67 39.4477 135.222 39 134.67 39V41ZM140.61 39C140.058 39 139.61 39.4477 139.61 40C139.61 40.5523 140.058 41 140.61 41V39ZM142.59 41C143.142 41 143.59 40.5523 143.59 40C143.59 39.4477 143.142 39 142.59 39V41ZM148.53 39C147.978 39 147.53 39.4477 147.53 40C147.53 40.5523 147.978 41 148.53 41V39ZM150.51 41C151.062 41 151.51 40.5523 151.51 40C151.51 39.4477 151.062 39 150.51 39V41ZM156.45 39C155.898 39 155.45 39.4477 155.45 40C155.45 40.5523 155.898 41 156.45 41V39ZM158.43 41C158.982 41 159.43 40.5523 159.43 40C159.43 39.4477 158.982 39 158.43 39V41ZM164.37 39C163.818 39 163.37 39.4477 163.37 40C163.37 40.5523 163.818 41 164.37 41V39ZM166.35 41C166.902 41 167.35 40.5523 167.35 40C167.35 39.4477 166.902 39 166.35 39V41ZM172.29 39C171.738 39 171.29 39.4477 171.29 40C171.29 40.5523 171.738 41 172.29 41V39ZM174.27 41C174.822 41 175.27 40.5523 175.27 40C175.27 39.4477 174.822 39 174.27 39V41ZM180.21 39C179.658 39 179.21 39.4477 179.21 40C179.21 40.5523 179.658 41 180.21 41V39ZM182.19 41C182.742 41 183.19 40.5523 183.19 40C183.19 39.4477 182.742 39 182.19 39V41ZM188.13 39C187.578 39 187.13 39.4477 187.13 40C187.13 40.5523 187.578 41 188.13 41V39ZM190.11 41C190.662 41 191.11 40.5523 191.11 40C191.11 39.4477 190.662 39 190.11 39V41ZM196.05 39C195.498 39 195.05 39.4477 195.05 40C195.05 40.5523 195.498 41 196.05 41V39ZM198.03 41C198.582 41 199.03 40.5523 199.03 40C199.03 39.4477 198.582 39 198.03 39V41ZM203.97 39C203.418 39 202.97 39.4477 202.97 40C202.97 40.5523 203.418 41 203.97 41V39ZM205.95 41C206.502 41 206.95 40.5523 206.95 40C206.95 39.4477 206.502 39 205.95 39V41ZM211.89 39C211.338 39 210.89 39.4477 210.89 40C210.89 40.5523 211.338 41 211.89 41V39ZM213.87 41C214.422 41 214.87 40.5523 214.87 40C214.87 39.4477 214.422 39 213.87 39V41ZM219.81 39C219.258 39 218.81 39.4477 218.81 40C218.81 40.5523 219.258 41 219.81 41V39ZM221.79 41C222.342 41 222.79 40.5523 222.79 40C222.79 39.4477 222.342 39 221.79 39V41ZM227.73 39C227.178 39 226.73 39.4477 226.73 40C226.73 40.5523 227.178 41 227.73 41V39ZM229.71 41C230.262 41 230.71 40.5523 230.71 40C230.71 39.4477 230.262 39 229.71 39V41ZM235.65 39C235.098 39 234.65 39.4477 234.65 40C234.65 40.5523 235.098 41 235.65 41V39ZM237.63 41C238.182 41 238.63 40.5523 238.63 40C238.63 39.4477 238.182 39 237.63 39V41ZM243.57 39C243.018 39 242.57 39.4477 242.57 40C242.57 40.5523 243.018 41 243.57 41V39ZM245.55 41C246.102 41 246.55 40.5523 246.55 40C246.55 39.4477 246.102 39 245.55 39V41ZM251.49 39C250.938 39 250.49 39.4477 250.49 40C250.49 40.5523 250.938 41 251.49 41V39ZM253.47 41C254.022 41 254.47 40.5523 254.47 40C254.47 39.4477 254.022 39 253.47 39V41ZM259.41 39C258.858 39 258.41 39.4477 258.41 40C258.41 40.5523 258.858 41 259.41 41V39ZM261.39 41C261.942 41 262.39 40.5523 262.39 40C262.39 39.4477 261.942 39 261.39 39V41ZM267.33 39C266.778 39 266.33 39.4477 266.33 40C266.33 40.5523 266.778 41 267.33 41V39ZM269.31 41C269.862 41 270.31 40.5523 270.31 40C270.31 39.4477 269.862 39 269.31 39V41ZM275.25 39C274.698 39 274.25 39.4477 274.25 40C274.25 40.5523 274.698 41 275.25 41V39ZM277.23 41C277.782 41 278.23 40.5523 278.23 40C278.23 39.4477 277.782 39 277.23 39V41ZM283.17 39C282.618 39 282.17 39.4477 282.17 40C282.17 40.5523 282.618 41 283.17 41V39ZM285.15 41C285.702 41 286.15 40.5523 286.15 40C286.15 39.4477 285.702 39 285.15 39V41ZM291.09 39C290.538 39 290.09 39.4477 290.09 40C290.09 40.5523 290.538 41 291.09 41V39ZM293.07 41C293.622 41 294.07 40.5523 294.07 40C294.07 39.4477 293.622 39 293.07 39V41ZM299.01 39C298.458 39 298.01 39.4477 298.01 40C298.01 40.5523 298.458 41 299.01 41V39ZM102 41H102.99V39H102V41ZM108.93 41H110.91V39H108.93V41ZM116.85 41H118.83V39H116.85V41ZM124.77 41H126.75V39H124.77V41ZM132.69 41H134.67V39H132.69V41ZM140.61 41H142.59V39H140.61V41ZM148.53 41H150.51V39H148.53V41ZM156.45 41H158.43V39H156.45V41ZM164.37 41H166.35V39H164.37V41ZM172.29 41H174.27V39H172.29V41ZM180.21 41H182.19V39H180.21V41ZM188.13 41H190.11V39H188.13V41ZM196.05 41H198.03V39H196.05V41ZM203.97 41H205.95V39H203.97V41ZM211.89 41H213.87V39H211.89V41ZM219.81 41H221.79V39H219.81V41ZM227.73 41H229.71V39H227.73V41ZM235.65 41H237.63V39H235.65V41ZM243.57 41H245.55V39H243.57V41ZM251.49 41H253.47V39H251.49V41ZM259.41 41H261.39V39H259.41V41ZM267.33 41H269.31V39H267.33V41ZM275.25 41H277.23V39H275.25V41ZM283.17 41H285.15V39H283.17V41ZM291.09 41H293.07V39H291.09V41ZM299.01 41H300V39H299.01V41Z" fill="#2DA0A6"/>
</svg>
