<svg width="64" height="80" viewBox="0 0 64 80" fill="none" xmlns="http://www.w3.org/2000/svg">
<path d="M61.0894 56.9576C56.7665 69.5512 48.6952 74.2372 36.8755 71.0156C25.0558 67.794 14.8778 61.4972 6.34135 52.1251C-2.19508 42.7531 -2.113 33.5568 6.58759 24.5363C15.2882 15.5157 24.9737 10.1268 35.6443 8.36952C46.3148 6.61226 54.304 11.1225 59.6119 21.9004C64.9198 32.6782 65.4123 44.3639 61.0894 56.9576Z" fill="#EFF3F6"/>
<path d="M3.04 60.36L8.32 52.44C9.92 54.0933 11.8667 55.48 14.16 56.6C16.5067 57.6667 18.88 58.2 21.28 58.2C24.2133 58.2 26.64 57.4 28.56 55.8C30.48 54.2 31.44 52.1733 31.44 49.72C31.44 46.84 30.2933 44.6533 28 43.16C25.76 41.6667 22.8533 40.92 19.28 40.92H15.36L13.12 35.64L23.52 23.32C24.16 22.52 24.8267 21.7733 25.52 21.08C26.2133 20.3333 26.72 19.8 27.04 19.48L27.6 19V18.84C26.4267 19 24.7467 19.08 22.56 19.08H5.6V10.2H40.24V16.68L26.4 32.76C30.6667 33.3467 34.2933 35.1067 37.28 38.04C40.32 40.92 41.84 44.68 41.84 49.32C41.84 54.44 40.0267 58.84 36.4 62.52C32.7733 66.1467 27.92 67.96 21.84 67.96C18.3733 67.96 14.96 67.32 11.6 66.04C8.29333 64.7067 5.44 62.8133 3.04 60.36Z" fill="#2DA0A6"/>
</svg>
