<svg width="64" height="80" viewBox="0 0 64 80" fill="none" xmlns="http://www.w3.org/2000/svg">
<path d="M61.0894 56.9576C56.7665 69.5512 48.6952 74.2372 36.8755 71.0156C25.0558 67.794 14.8778 61.4972 6.34135 52.1251C-2.19508 42.7531 -2.113 33.5568 6.58759 24.5363C15.2882 15.5157 24.9737 10.1268 35.6443 8.36952C46.3148 6.61226 54.304 11.1225 59.6119 21.9004C64.9198 32.6782 65.4123 44.3639 61.0894 56.9576Z" fill="#EFF3F6"/>
<path d="M14.64 67C14.32 65.1867 14.16 63.5067 14.16 61.96C14.16 59.1867 14.64 56.6 15.6 54.2C16.6133 51.8 17.8933 49.7467 19.44 48.04C20.9867 46.28 22.6933 44.6533 24.56 43.16C26.48 41.6667 28.3733 40.28 30.24 39C32.16 37.72 33.8933 36.4667 35.44 35.24C36.9867 34.0133 38.24 32.7067 39.2 31.32C40.2133 29.88 40.72 28.4133 40.72 26.92C40.72 24.52 39.8933 22.6 38.24 21.16C36.5867 19.72 34.5333 19 32.08 19C30 19 28.0533 19.64 26.24 20.92C24.4267 22.2 22.96 23.8 21.84 25.72L14.16 20.6C15.9733 17.2933 18.48 14.5733 21.68 12.44C24.88 10.3067 28.64 9.24 32.96 9.24C38.1333 9.24 42.5067 10.76 46.08 13.8C49.6533 16.7867 51.44 20.8667 51.44 26.04C51.44 28.4933 50.96 30.8133 50 33C49.0933 35.1333 47.8933 36.9733 46.4 38.52C44.9067 40.0667 43.2267 41.5333 41.36 42.92C39.5467 44.3067 37.7333 45.5867 35.92 46.76C34.1067 47.9333 32.4267 49.1067 30.88 50.28C29.3333 51.4 28.0533 52.6267 27.04 53.96C26.08 55.2933 25.5733 56.68 25.52 58.12H52.32V67H14.64Z" fill="#2DA0A6"/>
</svg>
