<svg width="64" height="80" viewBox="0 0 64 80" fill="none" xmlns="http://www.w3.org/2000/svg">
<path d="M61.0894 56.9576C56.7665 69.5512 48.6952 74.2372 36.8755 71.0156C25.0558 67.794 14.8778 61.4972 6.34135 52.1251C-2.19508 42.7531 -2.113 33.5568 6.58759 24.5363C15.2882 15.5157 24.9737 10.1268 35.6443 8.36952C46.3148 6.61226 54.304 11.1225 59.6119 21.9004C64.9198 32.6782 65.4123 44.3639 61.0894 56.9576Z" fill="#EFF3F6"/>
<path d="M14.48 67V58.12H26.88V26.6L26.96 22.76H26.8C26.32 23.6667 25.4667 24.7333 24.24 25.96L19.68 30.28L13.6 23.88L27.84 10.2H36.88V58.12H49.2V67H14.48Z" fill="#2DA0A6"/>
</svg>
